<?xml version="1.0" standalone="no"?>
<!DOCTYPE svg PUBLIC "-//W3C//DTD SVG 20010904//EN"
 "http://www.w3.org/TR/2001/REC-SVG-20010904/DTD/svg10.dtd">
<svg version="1.0" xmlns="http://www.w3.org/2000/svg"
 width="512.000000pt" height="512.000000pt" viewBox="0 0 512.000000 512.000000"
 preserveAspectRatio="xMidYMid meet">

<g transform="translate(0.000000,512.000000) scale(0.100000,-0.100000)"
fill="#000000" stroke="none">
<path d="M3293 5110 c-106 -14 -252 -53 -430 -116 -444 -157 -466 -163 -741
-199 -228 -29 -380 -62 -552 -117 -399 -129 -674 -285 -904 -514 -146 -146
-205 -254 -221 -404 l-7 -65 -133 -78 c-210 -124 -284 -203 -285 -303 -1 -150
143 -301 308 -324 67 -9 144 4 407 66 195 46 204 47 365 48 162 1 170 0 415
-51 343 -71 389 -77 590 -70 l172 5 22 -46 c62 -126 240 -370 356 -486 215
-215 526 -343 671 -277 64 29 97 80 102 156 4 59 1 68 -41 146 -25 46 -57 118
-71 160 -26 78 -55 263 -43 275 22 22 333 -128 445 -215 94 -73 211 -263 286
-464 71 -189 116 -410 116 -565 l0 -90 -96 -1 c-298 -1 -529 -87 -724 -268
-82 -76 -103 -118 -98 -198 7 -119 68 -163 238 -177 157 -12 216 -26 304 -70
97 -49 169 -74 233 -83 76 -11 81 -13 112 -69 54 -94 136 -159 333 -265 112
-60 161 -109 227 -227 24 -43 55 -98 68 -122 35 -63 92 -96 163 -97 147 -1
205 99 217 375 11 246 -26 388 -175 669 -64 122 -96 194 -104 234 -12 66 -8
113 43 497 30 226 33 267 33 535 1 223 -3 321 -17 425 -75 568 -286 1001 -677
1389 -135 134 -315 280 -432 350 -21 13 -38 26 -38 31 0 8 123 49 270 91 59
17 83 29 112 60 43 45 63 116 47 171 -33 122 -197 222 -431 264 -104 18 -340
26 -435 14z m-2120 -1231 c43 -12 101 -59 123 -100 18 -35 18 -120 0 -163 -50
-120 -260 -156 -348 -59 -26 29 -48 88 -48 130 1 89 62 161 161 187 67 18 66
18 112 5z"/>
</g>
</svg>
